HIERARCHY
ROOT Hips
{
  OFFSET 0 0 0
  CHANNELS 6 Xposition Yposition Zposition Zrotation Yrotation Xrotation
  JOINT LeftThigh
  {
    OFFSET 8.409438 0 -5.917753
    CHANNELS 3 Zrotation Yrotation Xrotation
    JOINT LeftLeg
    {
      OFFSET 0 0 -42.358652
      CHANNELS 3 Zrotation Yrotation Xrotation
      JOINT LeftFoot
      {
        OFFSET 0 0 -39.357303
        CHANNELS 3 Zrotation Yrotation Xrotation
      }
    }
  }
  JOINT RightThigh
  {
    OFFSET -8.409438 0 -5.917753
    CHANNELS 3 Zrotation Yrotation Xrotation
    JOINT RightLeg
    {
      OFFSET 0 0 -42.358652
      CHANNELS 3 Zrotation Yrotation Xrotation
      JOINT RightFoot
      {
        OFFSET 0 0 -39.357303
        CHANNELS 3 Zrotation Yrotation Xrotation
      }
    }
  }
  JOINT SpineLow
  {
    OFFSET 0 0 4.719101
    CHANNELS 3 Zrotation Yrotation Xrotation
    JOINT SpineMid
    {
      OFFSET 0 0 12.899191
      CHANNELS 3 Zrotation Yrotation Xrotation
      JOINT Chest
      {
        OFFSET 0 0 12.899191
        CHANNELS 3 Zrotation Yrotation Xrotation
        JOINT LeftShoulder
        {
          OFFSET 7.550562 1.41573 9.438202
          CHANNELS 3 Zrotation Yrotation Xrotation
          JOINT LeftArm
          {
            OFFSET 9.155056 0 4.247191
            CHANNELS 3 Zrotation Yrotation Xrotation
            JOINT LeftForearm
            {
              OFFSET 0 0 25.771955
              CHANNELS 3 Zrotation Yrotation Xrotation
              JOINT LeftHand
              {
                OFFSET 0 0 25.197169
                CHANNELS 3 Zrotation Yrotation Xrotation
              }
            }
          }
        }
        JOINT RightShoulder
        {
          OFFSET -7.550562 1.41573 9.438202
          CHANNELS 3 Zrotation Yrotation Xrotation
          JOINT RightArm
          {
            OFFSET -9.155056 0 4.247191
            CHANNELS 3 Zrotation Yrotation Xrotation
            JOINT RightForearm
            {
              OFFSET 0 0 -25.771955
              CHANNELS 3 Zrotation Yrotation Xrotation
              JOINT RightHand
              {
                OFFSET 0 0 -25.197169
                CHANNELS 3 Zrotation Yrotation Xrotation
              }
            }
          }
        }
        JOINT Neck
        {
          OFFSET 0 0 15.101124
          CHANNELS 3 Zrotation Yrotation Xrotation
          JOINT Head
          {
            OFFSET 0 0 11.325843
            CHANNELS 3 Zrotation Yrotation Xrotation
            End Site
            {
              OFFSET 0 0 14.157303
            }
          }
        }
      }
    }
  }
}
MOTION
Frames: 5
Frame Time: 0.0
0.0  101.685394  0.0  2.871864  18.19252  -96.856869  0.531719  -14.950008  4.905812  -5.427455  8.705148  13.716969  0.502751  2.160475  3.696109  -18.686141  16.403047  1.365257  -0.566394  2.273672  9.439983  0.366145  -0.190387  -1.824469  -0.040398  0.42534  2.42752  -0.067636  1.165329  6.635306  -0.067636  1.16533  6.635305  -22.378804  22.10161  7.778135  131.778084  49.820485  -177.768193  -11.648783  -3.157901  15.709454  74.416362  -5.051198  -17.560891  25.080359  -12.671238  6.73683  137.714447  42.713379  42.484037  -41.243479  -11.723263  -102.113786  44.921221  16.075875  9.685637  -2.806568  -2.601439  0.933778  -2.100593  -1.955421  0.688277  
0.0  101.685394  0.0  2.834173  18.496137  -96.863523  0.249677  -14.960442  4.957124  -5.468756  8.718639  13.594364  0.555909  2.146282  3.726643  -18.870735  16.375604  1.572377  -0.735214  2.345213  9.219751  0.376033  -0.250058  -1.836552  -0.004438  0.452495  2.452691  0.033748  1.235838  6.704822  0.033748  1.235838  6.704822  -22.680692  21.785931  7.588806  133.053523  50.082149  -176.64243  -12.068375  -3.058296  16.103713  74.068927  -4.989046  -17.667441  24.955168  -12.456731  6.361823  136.387961  42.991503  41.541653  -40.681378  -12.345181  -102.421533  44.36356  15.907122  9.262224  -3.148478  -2.74243  0.864975  -2.357029  -2.061347  0.63449  
0.0  101.685394  0.0  2.764645  18.73465  -96.886354  0.122564  -15.067406  5.020542  -5.744736  8.774201  13.327015  0.703578  2.164342  3.835782  -19.112612  16.325662  1.731022  -0.978419  2.413477  9.012136  0.549679  -0.283308  -1.837814  0.035899  0.480595  2.463293  0.146947  1.308438  6.734688  0.146947  1.308438  6.734687  -23.042878  21.402653  7.502493  134.165586  50.247041  -175.774082  -12.898141  -3.016958  16.795426  73.775962  -4.964148  -17.688969  24.877043  -12.364027  6.12861  134.997364  43.245835  40.862964  -39.901049  -13.030491  -102.758283  44.303422  15.782955  9.026756  -3.462442  -2.928018  0.846352  -2.592214  -2.200896  0.618049  
0.0  101.685394  0.0  2.752585  19.065914  -96.82543  -0.096839  -15.106057  4.953994  -5.79365  8.854437  13.289314  0.698836  2.149131  3.847622  -19.330768  16.299519  1.879332  -1.161083  2.51065  8.826512  0.572441  -0.354737  -1.871104  0.037612  0.507903  2.433521  0.153784  1.382904  6.653471  0.153784  1.382904  6.653471  -23.169112  21.132566  7.625049  134.792657  50.308379  -175.304239  -14.13368  -3.073198  17.774181  73.541414  -4.918932  -17.631441  24.742599  -12.266791  6.114328  133.742392  43.381909  40.242542  -39.218332  -13.273964  -103.057002  44.401162  15.739357  9.010517  -3.680292  -3.005246  0.955935  -2.75489  -2.259793  0.698704  
0.0  101.685394  0.0  2.701057  19.30627  -96.789653  -0.066536  -15.302273  4.906145  -6.138678  9.011628  13.085653  0.799307  2.175784  3.947448  -19.739824  16.256292  1.90388  -1.327627  2.60751  8.67711  0.817303  -0.40173  -1.878366  0.026058  0.545376  2.411376  0.125512  1.486431  6.592866  0.125512  1.486431  6.592867  -23.107704  20.806041  7.716948  135.275104  50.232879  -175.052051  -15.415839  -3.215334  19.040107  73.267598  -4.836718  -17.521525  24.839399  -12.266071  6.0651  132.581232  43.398574  39.879339  -38.749365  -13.000323  -103.314405  44.622321  15.809688  9.261503  -3.853087  -3.143362  1.015974  -2.88387  -2.364044  0.741988  
